STARTFONT 2.1
FONT -FontForge-New Science Medium-Medium-R-Normal--32-310-75-75-P-220-ISO10646-1
SIZE 31 75 75
FONTBOUNDINGBOX 21 23 1 0
COMMENT "Generated by fontforge, http://fontforge.sourceforge.net"
COMMENT "Copyright \(c\) 2023 by Newlyn Works Limited. All rights reserved."
STARTPROPERTIES 34
FOUNDRY "FontForge"
FAMILY_NAME "New Science Medium"
WEIGHT_NAME "Medium"
SLANT "R"
SETWIDTH_NAME "Normal"
ADD_STYLE_NAME ""
PIXEL_SIZE 32
POINT_SIZE 310
RESOLUTION_X 75
RESOLUTION_Y 75
SPACING "P"
AVERAGE_WIDTH 220
CHARSET_REGISTRY "ISO10646"
CHARSET_ENCODING "1"
FONTNAME_REGISTRY ""
CHARSET_COLLECTIONS "ISO10646-1"
FONT_NAME "NewScience-Medium"
FACE_NAME "New Science Medium"
COPYRIGHT "Copyright \(c\) 2023 by Newlyn Works Limited. All rights reserved."
FONT_VERSION "002.101"
FONT_ASCENT 26
FONT_DESCENT 6
UNDERLINE_POSITION -4
UNDERLINE_THICKNESS 3
RAW_ASCENT 803
RAW_DESCENT 196
RELATIVE_WEIGHT 50
RELATIVE_SETWIDTH 50
SUPERSCRIPT_X 0
SUPERSCRIPT_Y 11
SUPERSCRIPT_SIZE 19
SUBSCRIPT_X 0
SUBSCRIPT_Y 2
SUBSCRIPT_SIZE 19
ENDPROPERTIES
CHARS 10
STARTCHAR zero
ENCODING 48
SWIDTH 745 0
DWIDTH 24 0
BBX 20 23 2 0
BITMAP
07FE00
1FFF80
3FFFC0
7C03E0
7001E0
F000E0
F000F0
E000F0
E00070
E00070
E00070
E00070
E00070
E00070
E00070
E000F0
E000F0
F000E0
7000E0
7C03E0
3FFFC0
1FFF80
07FE00
ENDCHAR
STARTCHAR one
ENCODING 49
SWIDTH 435 0
DWIDTH 14 0
BBX 10 23 1 0
BITMAP
03C0
07C0
1FC0
3FC0
7DC0
F1C0
E1C0
C1C0
01C0
01C0
01C0
01C0
01C0
01C0
01C0
01C0
01C0
01C0
01C0
01C0
01C0
01C0
01C0
ENDCHAR
STARTCHAR two
ENCODING 50
SWIDTH 711 0
DWIDTH 23 0
BBX 19 23 2 0
BITMAP
0FFE00
3FFF80
7FFFC0
7803C0
F001E0
F001E0
E000E0
E000E0
0001E0
0001E0
0007C0
01FFC0
1FFF00
7FFC00
7E0000
F00000
E00000
E00000
E00000
E00000
FFFFE0
FFFFE0
FFFFE0
ENDCHAR
STARTCHAR three
ENCODING 51
SWIDTH 716 0
DWIDTH 23 0
BBX 19 23 2 0
BITMAP
0FFE00
3FFF80
7FFFC0
F803C0
F001E0
E001E0
E000E0
0001E0
0001C0
0003C0
01FF80
01FE00
01FFC0
0003C0
0001E0
0000E0
E000E0
E000E0
E001E0
F803E0
7FFFC0
7FFF80
0FFE00
ENDCHAR
STARTCHAR four
ENCODING 52
SWIDTH 709 0
DWIDTH 23 0
BBX 21 23 1 0
BITMAP
000780
000F80
001F80
003F80
007B80
00F380
01E380
03C380
078380
0F0380
0F0380
1E0380
3C0380
780380
F00380
FFFFF8
FFFFF8
FFFFF8
000380
000380
000380
000380
000380
ENDCHAR
STARTCHAR five
ENCODING 53
SWIDTH 710 0
DWIDTH 23 0
BBX 19 23 2 0
BITMAP
FFFFC0
FFFFC0
FFFFC0
E00000
E00000
E00000
E00000
E00000
E7FE00
EFFF80
FFFFC0
F803E0
F001E0
0000E0
0000E0
0000E0
E000E0
E000E0
F001E0
F803E0
7FFFC0
3FFF80
0FFE00
ENDCHAR
STARTCHAR six
ENCODING 54
SWIDTH 723 0
DWIDTH 23 0
BBX 20 23 2 0
BITMAP
07FE00
1FFF80
3FFFC0
7C03E0
7001E0
F000E0
E000E0
E00000
E00000
E3FE00
EFFFC0
FFFFE0
F803E0
F000E0
E000E0
E000F0
E000E0
F000E0
7000E0
7803E0
7FFFC0
3FFF80
0FFE00
ENDCHAR
STARTCHAR seven
ENCODING 55
SWIDTH 648 0
DWIDTH 21 0
BBX 19 23 1 0
BITMAP
FFFFE0
FFFFE0
FFFFE0
0001E0
0003C0
000380
000780
000700
000F00
001E00
001C00
003C00
003800
007800
00F000
00E000
01E000
01C000
03C000
078000
078000
0F0000
0E0000
ENDCHAR
STARTCHAR eight
ENCODING 56
SWIDTH 725 0
DWIDTH 23 0
BBX 19 23 2 0
BITMAP
0FFE00
3FFF80
7FFFC0
F803E0
F001E0
F000E0
E000E0
E000E0
F001E0
7803C0
3FFFC0
0FFE00
3FFFC0
7803E0
E000E0
E000E0
E000E0
E000E0
E000E0
F803E0
7FFFE0
3FFFC0
0FFE00
ENDCHAR
STARTCHAR nine
ENCODING 57
SWIDTH 725 0
DWIDTH 23 0
BBX 19 23 2 0
BITMAP
0FFE00
3FFF80
7FFFC0
F803C0
F001E0
E000E0
E000E0
E000E0
E000E0
E001E0
F803E0
7FFFE0
3FFEE0
0FFCE0
0000E0
0000E0
E000E0
E001E0
F001E0
F807C0
7FFFC0
3FFF80
0FFC00
ENDCHAR
ENDFONT
