STARTFONT 2.1
FONT -FontForge-New Science Medium-Medium-R-Normal--28-200-100-100-P-191-ISO10646-1
SIZE 20 100 100
FONTBOUNDINGBOX 18 21 1 0
COMMENT "Generated by fontforge, http://fontforge.sourceforge.net"
COMMENT "Copyright \(c\) 2023 by Newlyn Works Limited. All rights reserved."
STARTPROPERTIES 34
FOUNDRY "FontForge"
FAMILY_NAME "New Science Medium"
WEIGHT_NAME "Medium"
SLANT "R"
SETWIDTH_NAME "Normal"
ADD_STYLE_NAME ""
PIXEL_SIZE 28
POINT_SIZE 200
RESOLUTION_X 100
RESOLUTION_Y 100
SPACING "P"
AVERAGE_WIDTH 191
CHARSET_REGISTRY "ISO10646"
CHARSET_ENCODING "1"
FONTNAME_REGISTRY ""
CHARSET_COLLECTIONS "ISO10646-1"
FONT_NAME "NewScience-Medium"
FACE_NAME "New Science Medium"
COPYRIGHT "Copyright \(c\) 2023 by Newlyn Works Limited. All rights reserved."
FONT_VERSION "002.101"
FONT_ASCENT 23
FONT_DESCENT 5
UNDERLINE_POSITION -4
UNDERLINE_THICKNESS 3
RAW_ASCENT 803
RAW_DESCENT 196
RELATIVE_WEIGHT 50
RELATIVE_SETWIDTH 50
SUPERSCRIPT_X 0
SUPERSCRIPT_Y 9
SUPERSCRIPT_SIZE 16
SUBSCRIPT_X 0
SUBSCRIPT_Y 2
SUBSCRIPT_SIZE 16
ENDPROPERTIES
CHARS 10
STARTCHAR zero
ENCODING 48
SWIDTH 745 0
DWIDTH 21 0
BBX 17 21 2 0
BITMAP
0FF800
3FFE00
7FFF00
F00700
E00380
E00380
E00380
E00380
E00380
E00380
E00380
E00380
E00380
E00380
E00380
E00380
E00380
F00700
7FFF00
3FFE00
0FF800
ENDCHAR
STARTCHAR one
ENCODING 49
SWIDTH 435 0
DWIDTH 12 0
BBX 9 21 1 0
BITMAP
0780
0F80
1F80
3B80
7380
E380
C380
8380
0380
0380
0380
0380
0380
0380
0380
0380
0380
0380
0380
0380
0380
ENDCHAR
STARTCHAR two
ENCODING 50
SWIDTH 711 0
DWIDTH 20 0
BBX 16 21 2 0
BITMAP
1FF8
7FFE
FFFF
F007
E007
E007
E007
0007
0007
001F
03FE
3FFC
7FE0
F800
E000
E000
C000
C000
FFFF
FFFF
FFFF
ENDCHAR
STARTCHAR three
ENCODING 51
SWIDTH 716 0
DWIDTH 20 0
BBX 17 21 1 0
BITMAP
0FFC00
3FFF00
7FFF80
700380
700380
700380
000380
000380
000780
03FF00
03FE00
03FF00
000380
000380
E00180
E00180
E00380
700380
7FFF80
3FFF00
0FFC00
ENDCHAR
STARTCHAR four
ENCODING 52
SWIDTH 709 0
DWIDTH 20 0
BBX 18 21 1 0
BITMAP
001E00
003E00
007E00
00FE00
01EE00
03CE00
038E00
070E00
0E0E00
1C0E00
380E00
780E00
F00E00
FFFFC0
FFFFC0
FFFFC0
000E00
000E00
000E00
000E00
000E00
ENDCHAR
STARTCHAR five
ENCODING 53
SWIDTH 710 0
DWIDTH 20 0
BBX 16 21 2 0
BITMAP
FFFF
FFFF
FFFF
E000
E000
E000
E000
EFF8
FFFE
FFFF
F007
E007
0003
0003
0003
C003
E007
E007
FFFF
7FFE
1FF8
ENDCHAR
STARTCHAR six
ENCODING 54
SWIDTH 723 0
DWIDTH 20 0
BBX 17 21 2 0
BITMAP
0FF800
3FFE00
7FFF00
F00700
E00700
E00380
E00000
E00000
E1E000
FFFE00
FFFF00
F00700
E00380
E00380
E00380
E00380
E00380
F00700
7FFF00
3FFE00
0FF800
ENDCHAR
STARTCHAR seven
ENCODING 55
SWIDTH 648 0
DWIDTH 18 0
BBX 16 21 1 0
BITMAP
FFFF
FFFF
FFFF
0007
000E
000E
001C
003C
0038
0078
0070
00E0
00E0
01C0
03C0
0380
0780
0700
0E00
0E00
1C00
ENDCHAR
STARTCHAR eight
ENCODING 56
SWIDTH 725 0
DWIDTH 20 0
BBX 17 21 2 0
BITMAP
1FF800
7FFE00
FFFF00
E00700
E00700
E00300
E00300
E00700
F00F00
7FFE00
1FF800
7FFF00
E00700
E00380
C00380
C00380
E00380
E00700
FFFF00
7FFE00
1FF800
ENDCHAR
STARTCHAR nine
ENCODING 57
SWIDTH 725 0
DWIDTH 20 0
BBX 17 21 2 0
BITMAP
1FF800
7FFE00
FFFE00
E00700
E00700
C00300
C00300
C00380
E00780
F00F80
FFFF80
7FFB80
07A380
000380
000300
E00700
E00700
E00F00
FFFE00
7FFC00
1FF800
ENDCHAR
ENDFONT
